# 3ds Max Wavefront OBJ Exporter v0.97b - (c)2007 guruware
# File Created: 31.01.2015 00:05:57

mtllib main_menu_settings.mtl

#
# object Plane
#

v  0.5000 0.5000 -0.55000
v  0.5000 -0.5000 -0.55000
v  -0.5000 0.5000 -0.55000
v  -0.5000 -0.5000 -0.55000
# 4 vertices

vn -0.0000 -0.0000 -1.0000
# 1 vertex normals

vt 0.0000 1.0000 0.0000
vt 0.0000 0.0000 0.0000
vt 1.0000 1.0000 0.0000
vt 1.0000 0.0000 0.0000
# 4 texture coords

g Plane
usemtl 01___Default
s 1
f 1/1/1 2/2/1 3/3/1 
f 4/4/1 3/3/1 2/2/1 
# 2 faces

